<?xml version="1.0" encoding="iso-8859-1"?>
<!-- Uploaded to: SVG Repo, www.svgrepo.com, Generator: SVG Repo Mixer Tools -->
<svg height="800px" width="800px" version="1.1" id="Layer_1" xmlns="http://www.w3.org/2000/svg" xmlns:xlink="http://www.w3.org/1999/xlink" 
	 viewBox="0 0 512 512" xml:space="preserve">
<g>
	<path style="fill:#A7E2DE;" d="M234.674,10.77c111.883,0,202.581,90.698,202.581,202.583c0,36.298-9.556,70.361-26.277,99.828
		c-8.574-2.512-17.647-3.866-27.033-3.866c-52.996,0-95.958,42.961-95.958,95.959c0,1.185,0.028,2.36,0.071,3.536
		c-17.009,4.637-34.905,7.124-53.384,7.124c-111.883,0-202.583-90.698-202.583-202.581C32.092,101.468,122.792,10.77,234.674,10.77z
		"/>
	<path style="fill:#DD2645;" d="M383.945,501.232c52.853,0,95.961-43.107,95.961-95.959c0-52.853-43.107-95.959-95.961-95.959
		c-52.851,0-95.958,43.105-95.958,95.959C287.988,458.124,331.094,501.232,383.945,501.232z"/>
	<g>
		<path style="fill:#000003;" d="M175.681,351.637c-0.022-0.038-0.088-0.168-0.11-0.206c-2.814-5.24-9.351-7.217-14.59-4.405
			c-5.241,2.814-7.214,9.331-4.4,14.571c0.017,0.033,0.081,0.154,0.098,0.187c1.941,3.631,5.664,5.698,9.512,5.698
			c1.712,0,3.45-0.41,5.065-1.275C176.504,363.404,178.486,356.883,175.681,351.637z"/>
		<path style="fill:#000003;" d="M366.173,178.746l0.134,0.033c0.939,0.252,1.882,0.375,2.811,0.375
			c4.747,0,9.095-3.165,10.391-7.97c1.549-5.743-1.851-11.653-7.595-13.202l-0.435-0.113c-5.763-1.47-11.625,2.022-13.091,7.786
			C356.923,171.419,360.409,177.28,366.173,178.746z"/>
		<path style="fill:#000003;" d="M425.859,307.124c2.283-4.228,4.589-8.677,6.699-13.909c10.265-25.398,15.469-52.266,15.469-79.862
			C448.027,95.71,352.317,0,234.674,0S21.322,95.71,21.322,213.353s95.708,213.351,213.35,213.353h0.001c0.031,0,0.065,0,0.096,0
			c0.215-0.002,0.425-0.013,0.639-0.015c0.571-0.006,1.142-0.015,1.71-0.038c14.977-0.36,28.525-2.889,40.979-7.674
			c6.749,52.399,51.644,93.02,105.849,93.02c58.851,0,106.732-47.878,106.732-106.729
			C490.677,361.292,463.935,323.445,425.859,307.124z M383.945,298.543c-19.436,0-37.673,5.226-53.384,14.339
			c3.095-11.826,5.641-24.239,7.574-36.984c35.113-5.989,65.351-15.228,85.17-27.607c-2.318,12.586-5.889,24.906-10.719,36.858
			c-2.046,5.074-4.419,9.432-6.931,14.047c-0.253,0.467-0.512,0.94-0.768,1.414C398.112,299.259,391.112,298.543,383.945,298.543z
			 M148.153,213.353c0-14.908,0.786-29.549,2.316-43.718c22.813-3.156,47.649-4.998,73.437-5.402v98.239
			c-25.672-0.402-50.402-2.232-73.131-5.362C148.932,240.583,148.153,225.278,148.153,213.353z M128.705,253.547
			c-12.258-2.295-23.733-5.008-34.22-8.113c-38.103-11.282-51.623-24.332-51.623-32.081c0-7.749,13.52-20.801,51.623-32.083
			c10.415-3.081,21.804-5.778,33.966-8.062c-1.203,12.973-1.838,26.385-1.838,40.145
			C126.613,224.848,127.247,238.675,128.705,253.547z M298.401,341.519c-6.765,9.053-12.124,19.216-15.761,30.156
			c-8.499,12.792-21.185,27.203-37.196,31.906V284.012c23.988-0.373,47.851-1.986,70.336-4.815
			C311.9,301.947,305.964,323.271,298.401,341.519z M245.444,262.472v-98.233c25.171,0.415,50.222,2.271,73.442,5.446
			c1.525,14.153,2.31,28.777,2.31,43.667c0,14.75-0.792,29.43-2.345,43.72C296.047,260.226,271.219,262.071,245.444,262.472z
			 M245.444,142.699V23.185c17.647,5.321,34.811,23.46,48.318,51.583c10.011,20.845,17.474,45.66,22.07,72.793
			C293.368,144.736,269.443,143.083,245.444,142.699z M223.904,23.185v119.508c-24.004,0.373-47.883,1.988-70.381,4.822
			c4.596-27.115,12.056-51.911,22.063-72.747C189.093,46.646,206.256,28.507,223.904,23.185z M423.241,178.172
			c-5.738-3.547-12.459-6.899-20.169-10.046c-5.507-2.247-11.794,0.393-14.041,5.901c-2.249,5.507,0.393,11.794,5.901,14.043
			c23.266,9.495,31.555,19.287,31.555,25.285c0,7.749-13.521,20.8-51.623,32.081c-10.425,3.086-21.828,5.785-34.003,8.071
			c1.241-13.189,1.876-26.645,1.876-40.152c0-78.948-20.673-146.599-52.147-183.491C358.227,50.514,410.107,107.615,423.241,178.172
			z M178.758,29.862c-22.763,26.681-39.871,69.454-47.598,120.956c-35.077,5.987-65.287,15.219-85.097,27.583
			C59.127,107.739,111.047,50.538,178.758,29.862z M46.064,248.305c19.864,12.401,50.191,21.65,85.393,27.634
			c2.615,17.632,6.405,35.804,11.659,52.668c0.312,0.999,0.628,1.99,0.95,2.979c1.479,4.55,5.701,7.442,10.24,7.442
			c1.102,0,2.225-0.172,3.332-0.532c5.656-1.838,8.751-7.916,6.912-13.572c-0.296-0.909-0.587-1.821-0.871-2.732
			c-4.253-13.65-7.485-28.408-9.872-42.965c22.416,2.81,46.194,4.416,70.098,4.785v120.844
			C134.904,399.907,61.907,334.005,46.064,248.305z M383.945,490.46c-46.973,0-85.188-38.214-85.188-85.189
			c0-46.972,38.214-85.187,85.188-85.187s85.191,38.214,85.191,85.187C469.137,452.244,430.919,490.46,383.945,490.46z"/>
		<path style="fill:#000003;" d="M383.945,368.392c-11.777,0-21.324,9.548-21.324,21.324c0,7.894,4.286,14.784,10.659,18.469v23.308
			c0,5.866,4.798,10.66,10.661,10.66h0.002c5.863,0,10.661-4.794,10.661-10.66v-23.305c6.374-3.688,10.661-10.576,10.661-18.471
			C405.269,377.939,395.723,368.392,383.945,368.392z"/>
	</g>
</g>
</svg>